<svg xmlns="http://www.w3.org/2000/svg" xmlns:xlink="http://www.w3.org/1999/xlink" id="Layer_1" x="0" y="0" version="1.1" viewBox="0 0 603.7 196.2" xml:space="preserve" style="enable-background:new 0 0 603.7 196.2"><style type="text/css">.st0{display:none}.st1{fill:#001f00}.st2{fill:url(#SVGID_1_)}.st3{fill:#c3aec5}.st4{fill:#f0c872}.st5{fill:#f0c11a}.st6{opacity:.5;fill:#c3aec5;enable-background:new}.st7{fill:#aee972}.st8{fill:#3d61ba}.st9{fill:#e239e6}.st10,.st11{opacity:.5;fill:#aee972;enable-background:new}.st11{fill:#4265bc}</style><circle cx="151" cy="329" r="64" class="st0"/><g><g><path d="M200.3,56H245c6.2,0,10.6,1,13.5,3.5c3.7,3.3,5.3,7.6,5.3,20.1c0,11.9-4.3,15.4-12.6,17.5v0.2 c9.8,1.6,13.5,6.1,13.5,19.2c0,14.1-2.1,18-5.6,21.3c-2.7,2.6-7.7,3.8-13.7,3.8h-44.9V56H200.3z M242.2,91.5c3.8,0,5-0.2,5.9-1 c1.2-1.1,2-3.1,2-11c0-7.8-0.6-9.7-1.8-10.8c-0.7-0.7-2.1-1-6-1H214v23.7h28.2V91.5z M248.7,103.9c-0.7-0.7-1.7-1-5.8-1H214v26.9 h28.9c3.8,0,5.1-0.1,6-1c1-1,2-2.9,2-12.2C250.9,107,249.8,105,248.7,103.9z" class="st1"/><path d="M309.1,107.4v34.3h-13.7v-33.9L265.3,56h15.1l21.5,38h1l21.2-38h14.8L309.1,107.4z" class="st1"/><path d="M432.4,141.6h-14V68.8h-1.8l-20,69c-1,3.2-1.5,3.8-4.8,3.8H383c-3.3,0-3.9-0.6-4.8-3.8l-19.9-70.3h-1.8v74 h-13.3V56h21.3c3.4,0,4.5,1.1,5.4,4.3l17.4,63.5h1.8l17.3-63.5c0.9-3.2,1.8-4.3,5.3-4.3h20.8v85.6H432.4z" class="st1"/><path d="M490.3,56c8.1,0,11.1,0.9,14,3.4c4.8,4.3,6.5,8.3,6.7,23.5h-13.3c-0.2-10.2-1.3-12.6-2.7-13.8 c-1-0.9-2-1.3-6.1-1.3h-21.2c-4.2,0-5.1,0.5-6.1,1.3c-1.3,1.2-3.1,5-3.1,29.7s1.7,28.5,3.1,29.7c1,0.9,2,1.3,6.1,1.3h21.2 c4.2,0.1,5.1-0.5,6.1-1.3c1.3-1.2,2.9-5.5,2.9-15.8v-4.3H478V96.7h33.8v10.9c0,18.8-2.7,26.3-7.5,30.6c-2.8,2.6-5.9,3.4-14,3.4 h-24.1c-8.1,0-11.1-0.9-14-3.4c-4.8-4.3-7.7-10.5-7.7-39.4s2.9-35.1,7.7-39.4c2.8-2.6,5.9-3.4,14-3.4C466.2,56,490.3,56,490.3,56z" class="st1"/><path d="M528.7,54.8v23.6h-4.6V54.8H516v-3.9h20.6v3.9H528.7z M570.5,78.4H566v-23h-0.7l-6.1,21.5 c-0.4,1.2-0.8,1.5-2.1,1.5h-2.4c-1.3,0-1.6-0.3-2-1.5l-6.1-21.5h-0.7v23h-4.3V50.9h6.9c1.3,0,1.6,0.2,2,1.6l5.3,20.8h0.6l5.3-20.8 c0.4-1.4,0.6-1.6,2-1.6h6.7L570.5,78.4L570.5,78.4z" class="st1"/></g><g><radialGradient id="SVGID_1_" cx="-713.729" cy="-11533.804" r="743.791" gradientTransform="matrix(-0.1721 -5.673748e-02 5.673746e-02 -0.1721 585.1658 -1877.3317)" gradientUnits="userSpaceOnUse"><stop offset=".006" style="stop-color:#cfed26"/><stop offset=".539" style="stop-color:#e1fc90"/><stop offset="1" style="stop-color:#558a3d"/></radialGradient><path d="M36.6,77.5C25.2,112,44,149.2,78.4,160.6c34.5,11.4,71.7-7.4,83.1-41.9s-7.4-71.7-41.9-83.2 C85.2,24.3,48,43,36.6,77.5z" class="st2"/><g><g><g><g><path d="M91,60.2c-1,0.2,1.2,10.3,1.9,12.4c1.8,5.9,4.6,10.8,8.4,15.1c7.4,8.4,15.4,14.8,21.4,26 c5.7,10.5,12,38.3,0.6,37.6c-4.8-0.3-9.9-4-12.2-11.3c-2.4-7.4-1.5-13.6-1.4-20.3c0.2-9.7-1.4-21.2-9.9-27.5 c-5.2-3.9-10.5-4.1-15.3-10.4c-4.2-5.5-6.9-14-8.3-20.7c-1.2-5.7-2.5-13.1-0.3-17s7-4.1,10.7,0.7s4.2,11.2,4.7,16.8 c-0.5,0-0.4-0.4-0.7-0.9L91,60.2z" class="st3"/><path d="M86.6,44.8c8,8.8,3.9,23.1,8.7,33.4c5.7,12.2,14.2,17.5,21.6,27.3c6.9,9,11.3,23.7,10.7,34.2 c-0.2,2.7-1.3,7.5-4,6.3c-3.5-1.5-4.3-10.8-4.6-14.1c-1.1-10.9-1.8-22.7-9-32.8c-4.2-5.9-9.1-10-13.5-15.2 c-4.8-5.6-8.8-12-12-19.3c-2.3-5-4-12.2-3.6-17c0.4-4.2,3.2-5.3,6.3-1.9c0.3,0.3,0.8,0.9,0.6,0.7L86.6,44.8z" class="st4"/><path d="M113.6,102.1c1.2,2.2,3.5,4.5,4.9,6.7c1.4,2,2.5,3.8,3.6,6.1c2.2,4.8,3.9,11.3,4.3,16.3 c0.2,2.1,0.2,6.6-2.4,4.7c-1.9-1.4-2.3-6.9-2.6-9c-0.8-5.7-1.8-10.9-4.2-16.5c-1.1-2.6-2.7-5.5-3.6-7.7L113.6,102.1z" class="st5"/><path d="M86.5,45.6c5.3,6.4,3.7,16.9,3.2,23.1C87.9,63,84.1,58.1,82.8,52c-0.4-1.9-1-5.1-0.3-6.4 c0.9-1.5,3.1-1,4.3,1.1L86.5,45.6z" class="st5"/><path d="M105.6,97.9c2.7,5.4,4.1,10.3,5.3,16.1c1.1,5.6,2,13.8,6.2,18.2c5.5,5.9,10.1,3.3,9.9-3.7 c1.4,7.5,3,21.8-3.6,22c-8,0.2-12-8.4-12.9-17.3c-0.8-8.1,1-17.9-1-26.7L105.6,97.9z" class="st3"/><path d="M90.6,53.2c-1.1-2.6-3.5-4.4-5.3-5c-3.2-0.9-4.2,3.2-4.8,6.8c-1.1,7.1,2.3,15.7,6.6,22.6 c2.7,4.3,5.7,7.2,9.2,9.7c3.1,2.3,6.2,3.7,8.6,8.2c0.8,1.5,1.6,3.7,2,5.2c-2.9-5-5.5-8.5-9.5-11.1c-3.2-2.1-6.6-1.8-9.7-4.3 c-7-5.4-10.8-22.2-12.3-30.7c-1.1-6.1,0.4-10.8,3.8-12.8c4.1-2.5,9.2,4.4,11.4,10.6c-0.1,0.4-0.1-0.2-0.2-0.4L90.6,53.2z" class="st3"/><path d="M104.4,95.3c2.2,2.3,4.3,8.5,5.5,11.7c1.7,4.6,3.3,10.7,6.4,14.4c2.2,2.7,4.9,3.5,6.5,1.6 c1.2-1.4,0.9-3.4,1-5.6c2.1,2.1,3.8,10.3,4.4,13.2c1.1,5.2,1.2,9.9,0,14.1c-2,6.9-8.5,8.2-14.1-0.1c-4.4-6.7-3.6-17.7-3.4-24 c0.1-3.4,0.2-6.5-0.4-10.1c-0.5-3.4-2.3-6.4-2.9-9.5L104.4,95.3z" class="st6"/><path d="M89.2,50.2c1.7,1.7,3.2,8.9,2.2,10.3c-0.8-3.1-3-3.6-4.5-3c-2.2,1-2.9,4.3-2.6,7.8 c0.2,3.5,0.9,7.8,2.2,11.4c1.4,4,3.8,6.1,5.8,9.2c-1.8,0.2-5.2-3.5-6.6-5.6c-2.1-3-3.9-7.5-5.2-11.1 C78,62.7,75.9,54.8,77.1,49c0.7-3.3,2.3-5.7,5.1-5.5c3.1,0.2,7.7,4.1,8.9,9.1L89.2,50.2z" class="st6"/></g><g><path d="M105.2,65c1,1,0.1,9.9-0.3,11.6c-1.2,4.8-3.5,7.9-6.8,9.6c-6.7,3.3-14.2,4.2-19,11.4 c-4.6,6.8-7.7,31.2,4.2,38.9c5,3.2,9.8,3.1,11.3-2.8c1.5-6.1-0.2-13.1-1.2-20.2c-1.5-10.3-1.3-21.1,6.8-21.5 c4.9-0.2,10.4,3.4,14.6,0.4c3.7-2.7,5.4-9.6,6-15.6c0.5-5.1,0.9-11.9-1.9-17.6s-7.8-9.4-11.1-7.1c-3.2,2.3-2.9,8.6-2.8,14.1 c0.5,0.3,0.4-0.1,0.6-0.5L105.2,65z" class="st7"/><path d="M107.9,52.1c-7.3,3.3-1.1,21.3-4.8,28.6c-4.4,8.6-12.6,7.9-19.1,12.6c-6.1,4.4-8.7,16.5-6.7,27.9 c0.5,2.9,2.4,8.8,5,9.6c3.4,1,3.1-8.2,3-11.4c-0.3-10.7-1-22.4,5.2-27.7c3.6-3.1,8.2-3.8,12.2-5.9c4.3-2.3,7.6-6.1,10.1-11.3 c1.7-3.6,2.6-9.9,1.5-15.2c-0.9-4.7-4-7.9-6.9-6.6c-0.2,0.1-0.7,0.4-0.6,0.3L107.9,52.1z" class="st8"/><path d="M87,92.2c-0.9,1.5-3.1,2.2-4.3,3.4c-1.2,1.1-2.1,2.1-2.9,3.8c-1.6,3.5-2.6,9-2.4,13.8 c0.1,2.1,0.7,6.8,3.1,6.7c1.8-0.1,1.5-5.5,1.5-7.5c0.1-5.4,0.4-10.2,2.2-14.2c0.8-1.9,2.1-3.7,2.8-5.5L87,92.2z" class="st9"/><path d="M108.1,53c-4.7,2.9-1.7,15-0.4,21.8c1.1-4.6,4.4-7,5-12.4c0.2-1.7,0.4-4.6-0.5-6.5 c-1.1-2.2-3.4-3.3-4.4-2L108.1,53z" class="st9"/><path d="M94.8,93.7c-2.1,3.7-3,7.8-3.4,13c-0.4,5-0.4,12.9-4.1,14.5c-5,2.2-10.1-4-10.9-11.2 c-0.5,6.8-0.3,20.6,6.6,25.6c8.4,6.1,11.5,0.1,11.3-8.6c-0.2-7.9-3.4-19.5-2.4-27.2L94.8,93.7z" class="st7"/><path d="M104.7,57.9c0.9-1.9,3.1-2.1,4.9-1.3c3.3,1.4,4.8,6.5,5.9,10.6c2.1,8.3-0.4,14.7-4,18.8 c-2.2,2.5-5,3.4-8.3,3.4c-3,0.1-6-0.7-8,2.3c-0.6,1-1.2,2.7-1.4,4c2.4-3.1,4.6-4.8,8.5-4.7c3.1,0.1,6.7,2.9,9.7,2.7 c6.6-0.5,8.4-15.3,8.9-23.1c0.3-5.6-1.8-11.6-5.6-16.2c-4.6-5.6-9.1-2.1-10.5,2.7c0.1,0.5,0.1-0.1,0.2-0.3L104.7,57.9z" class="st7"/><path d="M95.7,91.8c-2,0.8-3.4,5.7-4.2,8.2c-1.2,3.6-2.1,8.8-4.9,10.4c-2,1.1-4.7,0.1-6.6-3.1 c-1.4-2.4-1.4-4.2-1.7-6.6c-1.9,0.6-2.6,8-2.9,10.6c-0.5,4.6,0,9.5,1.8,14.7c3,8.7,10,14.9,14.7,10.3 c3.8-3.7,1.4-15.9,0.4-22.6c-0.5-3.6-1.1-6.9-0.9-10.3c0.1-3.1,1.6-5,1.8-7.8L95.7,91.8z" class="st10"/><path d="M105.8,55.8c-1.6,0.5-2.2,6.9-0.9,9.2c0.5-2.7,2.7-1.6,4.3,0.2c2.4,2.7,3.5,6.6,3.7,10.1s0,7.5-0.8,10.3 c-1,3.2-3.2,3.6-4.9,5.4c1.9,1.5,5,0.1,6.2-0.9c1.8-1.6,3.1-5,4.1-7.7c1.7-5,3-11.7,0.9-18.6c-1.2-4-3.1-7.6-6-9.5 c-3.3-2.1-7.6-1.4-8.1,3L105.8,55.8z" class="st10"/></g><path d="M94.1,85.8c-1.5-1.1-3.4-4.4-4.5-6.2c-1.8-2.9-3.1-6-4.3-9.3C83.7,66,82,60.1,83.1,56.4 c1.9-6.3,7.2,0.7,8.7,5.8c-0.2-3.8-0.2-7-1.7-10.9c-1.2-3.1-4.1-8-6.4-9.5c-3.1-2-5.9,0.5-7.1,3.1c-1.6,3.6-1.1,10,0.1,15 c1.7,6.7,4.6,14.8,8.6,20.5c1.7,2.3,8,8.6,9.6,6.6c-0.1,0-0.3-0.1-0.4-0.1L94.1,85.8z" class="st6"/><path d="M106,93c0.2,1.7,4,5,5.1,6.3c2.3,2.9,4.5,6.1,6.3,9.6c2.7,5.5,5.7,14.5,4.8,19.8c-0.6,3.4-4.1,3.6-6.7,1.2 c-1.1-1-2.4-3-3.2-4.5c-0.8-1.5-1.1-3.5-1.9-4.8c-0.1,8.6-0.8,16.8,5.7,25c3.1,3.8,6.8,4.6,9.7,3.7c3.6-1.1,3.8-7.8,3.3-13 c-0.8-8.9-5-19.7-9.6-27.6c-1.9-3.3-4.3-6-6.6-8.6C111.2,98.2,108,93.5,106,93L106,93z" class="st6"/></g><g><g><path d="M91.8,96.9c0.1-0.1-0.1-0.4,0.2-0.3c1.6,1.8,4,2.2,5.8,3c1.8,0.9,3.6,1.4,5.3,2.1c1.8,0.8,6.4,2.4,7.6,5 c0.6,1.3,0.7,3.5,0.3,4.6c-0.6,1.5-2,1.2-3.4,0.8c-3.3-0.9-6.9-3.3-10.2-4.7c-2-0.8-5.9-2.1-7.1-5.2c-1.5-3.9,0.6-5.1,2.4-5.3 H91.8z" class="st7"/><path d="M92.9,97.4c-0.2,0.7-0.7,1.3-0.5,2.4c0.4,1.4,1.8,2.5,2.6,3.4c2,2.3,4.7,3.8,7,4.8 c1.8,0.8,10,2.3,6.6-3.2c3.2,0.9,3.1,6.7,1.2,7.7c-2,1.1-5.5-0.9-8-2.3c-1.8-1-3.5-1.7-5.2-2.4c-1.7-0.6-3.2-0.9-4.8-2.4 c-3-2.7-2.3-6.9,0-7.7c0.4-0.1,0.9-0.2,1.4-0.1c-0.1,0-0.1,0-0.2,0.1L92.9,97.4z" class="st7"/><path d="M96.9,99.5c-1.1-0.3-3.2,1.1-2.8,3.3c0.4,2,3.4,3.6,4.6,4.3c1.8,1.1,3.8,2.2,5.5,2.9 c1.6,0.6,3.7,1.1,4.9,0.1c1-0.9,1.3-3,0.2-4.8c1.5,0.8,2,4,1.7,5.4c-0.3,1.6-1.8,1.8-3,1.9c-2.6,0.1-5.5-2.2-8.2-3.4 c-1.4-0.6-2.8-1.2-4.2-1.6c-1.2-0.4-2.6-0.6-3.8-1.7c-2.7-2.7-3-7.2-0.4-8c0.9-0.2,1.8-0.1,2.8,0.3c0.7,0.3,2.3,1.2,2.7,0.8 L96.9,99.5z" class="st7"/><path d="M104.9,102.9c-0.6-0.5-1.7-0.6-2.4-0.9c-0.8-0.4-1.7-0.7-2.5-1.1c-1.8-0.8-3.5-1.8-5.2-2 c-0.6-0.1-2-0.1-2,0.9c0,1.7,2.3,1.9,3,2c2.8,0.6,6.1,2,8.9,3.8c1.2,0.7,2.9,2.4,4.1,2.3c1-0.1,0.6-1.5-0.2-2.3 c-0.6-0.7-1.5-1.2-2.2-1.7c-0.5-0.4-2-0.8-2.3-1.4L104.9,102.9z" class="st11"/></g><path d="M110.6,106.4c-1.3-2.4-4.4-3.2-6.1-4.1c-1.8-0.9-3.6-1.7-5.4-2.5c-2.5-1.1-5.3-3.4-7.7-3.2 c-1.2,0.1-2.3,1-2.4,2.7c-0.1,1.5,0.3,3.9,1.3,5.3c1.2,1.8,3.5,2.1,4.9,2.7c2,0.8,4,1.3,6,2.2c1.7,0.8,4,2.2,5.5,1.8 c-0.6-0.4-1.4-0.4-2.1-0.6c-1.1-0.3-2.1-0.7-3.2-1.2c-1.7-0.7-3.5-1.3-5.1-2.5c-1.5-1-3.2-3.1-3.2-5.2c0.1-4.1,5.7-1.8,7.9-1 c0.8,0.3,2.1,1.2,2.8,1.1L110.6,106.4z" class="st7"/><path d="M110.6,106.7c-1.5-2.1-2.7-3.6-4.7-4.5c-2.2-1-4.3-1.6-6.4-2.5c-3.1-1.4-8.1-5.2-9.9-1.5 c-1.1,2.2,0.1,6.8,2.7,7.5c-1.8-2.6-1.9-6.1,0.2-6.7c1.6-0.4,3.8,0.7,5.6,1.2c3,0.8,6.5,1.8,9.5,4 C108.6,104.8,109.8,106.4,110.6,106.7L110.6,106.7z" class="st7"/></g><g><g><path d="M90.7,108.5c0.1-0.2-0.1-0.5,0.2-0.4c2,2.1,5,2.7,7.2,3.7c2.3,1.1,4.5,1.7,6.7,2.7c2.3,1,8,3,9.5,6 c0.8,1.6,0.9,4.1,0.4,5.4c-0.7,1.8-2.6,1.3-4.3,0.8c-4.1-1.2-8.6-4.1-12.7-5.8c-2.5-1-7.4-2.7-8.9-6.3c-1.9-4.6,0.7-6,3.1-6.1 L90.7,108.5z" class="st7"/><path d="M92,109.1c-0.3,0.8-0.9,1.5-0.6,2.7c0.5,1.7,2.2,2.9,3.2,4c2.6,2.8,5.9,4.6,8.7,5.8c2.2,1,12.5,3,8.3-3.6 c4,1.2,3.9,7.9,1.5,9c-2.6,1.2-6.9-1.2-10-2.9c-2.2-1.2-4.3-2.1-6.6-2.9c-2.1-0.8-4-1.2-6-3c-3.7-3.3-2.9-8.2,0-9 c0.5-0.1,1.2-0.2,1.7-0.1c-0.1,0-0.2,0-0.3,0.1L92,109.1z" class="st7"/><path d="M97,111.7c-1.4-0.3-4.1,1.2-3.5,3.8c0.5,2.4,4.3,4.4,5.7,5.2c2.2,1.3,4.7,2.7,6.9,3.6 c2.1,0.8,4.7,1.4,6.2,0.3c1.3-1,1.7-3.4,0.3-5.7c1.9,1,2.4,4.7,2,6.4c-0.4,1.9-2.3,2-3.8,2.1c-3.2,0.1-6.9-2.7-10.3-4.2 c-1.8-0.8-3.5-1.5-5.3-2c-1.6-0.5-3.3-0.7-4.8-2.2c-3.4-3.2-3.8-8.5-0.4-9.3c1.1-0.3,2.3-0.1,3.6,0.5c0.8,0.4,2.9,1.4,3.4,1 L97,111.7z" class="st7"/><path d="M107.1,115.9c-0.8-0.6-2.1-0.8-3-1.2c-1-0.4-2.1-0.9-3.1-1.3c-2.2-1-4.4-2.3-6.5-2.5 c-0.8-0.1-2.5-0.2-2.5,1c-0.1,1.9,2.9,2.3,3.8,2.5c3.5,0.8,7.6,2.6,11.2,4.7c1.5,0.9,3.6,2.9,5.1,2.8c1.3-0.1,0.8-1.7-0.2-2.7 c-0.8-0.8-1.9-1.5-2.8-2c-0.7-0.5-2.5-1-2.9-1.7L107.1,115.9z" class="st11"/></g><path d="M114.2,120.2c-1.7-2.8-5.5-3.8-7.6-5c-2.3-1.1-4.5-2.1-6.8-3.1c-3.1-1.4-6.6-4.1-9.6-4 c-1.6,0-2.9,1.1-3,3.1c-0.2,1.7,0.4,4.5,1.6,6.2c1.5,2.1,4.4,2.6,6.2,3.3c2.5,1,5,1.7,7.5,2.8c2.1,1,5,2.7,6.9,2.3 c-0.8-0.5-1.8-0.6-2.6-0.8c-1.3-0.4-2.7-0.9-4-1.5c-2.1-0.8-4.3-1.7-6.4-3.1c-1.8-1.2-4.1-3.7-4-6.2c0.2-4.7,7.2-1.9,10-1 c1.1,0.4,2.6,1.5,3.5,1.4L114.2,120.2z" class="st7"/><path d="M114.3,120.6c-1.9-2.5-3.4-4.3-5.9-5.4c-2.7-1.3-5.4-2-8.1-3.2c-3.9-1.7-10.2-6.3-12.4-2.1 c-1.3,2.5,0.1,7.9,3.4,8.8c-2.3-3.1-2.4-7.2,0.3-7.8c2-0.5,4.7,0.9,7,1.6c3.8,1.1,8.2,2.3,12,5 C111.7,118.2,113.3,120.1,114.3,120.6L114.3,120.6z" class="st7"/></g><g><g><path d="M89.8,51.3c0.1-0.1-0.1-0.4,0.2-0.3c1.6,1.8,4,2.2,5.8,3c1.8,0.9,3.6,1.4,5.3,2.1c1.8,0.8,6.4,2.4,7.6,5 c0.6,1.3,0.7,3.5,0.3,4.6c-0.6,1.5-2,1.2-3.4,0.8c-3.3-0.9-6.9-3.3-10.2-4.7c-2-0.8-5.9-2.1-7.1-5.2c-1.5-3.9,0.6-5.1,2.4-5.3 H89.8z" class="st7"/><path d="M90.9,51.8c-0.2,0.7-0.7,1.3-0.5,2.4c0.4,1.4,1.8,2.5,2.6,3.4c2,2.3,4.7,3.8,7,4.8 c1.8,0.8,10,2.3,6.6-3.2c3.2,0.9,3.1,6.7,1.2,7.7c-2,1.1-5.5-0.9-8-2.3c-1.8-1-3.4-1.7-5.2-2.4c-1.7-0.6-3.2-0.9-4.8-2.4 c-3-2.7-2.3-6.9,0-7.7c0.4-0.1,0.9-0.2,1.4-0.1c-0.1,0-0.1,0-0.2,0.1L90.9,51.8z" class="st7"/><path d="M94.9,53.9c-1.1-0.3-3.2,1.1-2.8,3.3c0.4,2,3.4,3.6,4.6,4.3c1.8,1.1,3.8,2.2,5.5,2.9 c1.6,0.6,3.7,1.1,4.9,0.1c1-0.9,1.3-3,0.2-4.8c1.5,0.8,2,4,1.7,5.4c-0.3,1.6-1.8,1.8-3,1.9c-2.6,0.1-5.5-2.2-8.2-3.4 C96.4,63,95,62.4,93.6,62c-1.2-0.4-2.6-0.6-3.8-1.7c-2.7-2.7-3-7.2-0.4-8c0.9-0.2,1.8-0.1,2.8,0.3c0.7,0.3,2.3,1.2,2.7,0.8 L94.9,53.9z" class="st7"/><path d="M102.9,57.3c-0.6-0.5-1.7-0.6-2.4-0.9c-0.8-0.4-1.7-0.7-2.5-1.1c-1.8-0.8-3.5-1.8-5.2-2 c-0.6-0.1-2-0.1-2,0.9c0,1.7,2.3,1.9,3,2c2.8,0.6,6.1,2,8.9,3.8c1.2,0.7,2.9,2.4,4.1,2.3c1-0.1,0.6-1.5-0.2-2.3 c-0.6-0.7-1.5-1.2-2.2-1.7c-0.5-0.4-2-0.8-2.3-1.4L102.9,57.3z" class="st11"/></g><path d="M108.6,60.8c-1.3-2.4-4.4-3.2-6.1-4.1c-1.8-0.9-3.6-1.7-5.4-2.5c-2.5-1.1-5.3-3.4-7.7-3.2 c-1.2,0.1-2.3,1-2.4,2.7c-0.1,1.5,0.3,3.9,1.3,5.3c1.2,1.8,3.5,2.1,4.9,2.7c2,0.8,4,1.3,6,2.2c1.7,0.8,4,2.2,5.5,1.8 c-0.6-0.4-1.4-0.4-2.1-0.6c-1.1-0.3-2.1-0.7-3.2-1.2c-1.7-0.7-3.5-1.3-5.1-2.5c-1.5-1-3.2-3.1-3.2-5.2c0.1-4.1,5.7-1.8,7.9-1 c0.8,0.3,2.1,1.2,2.8,1.1L108.6,60.8z" class="st7"/><path d="M108.6,61.1c-1.5-2.1-2.7-3.6-4.7-4.5c-2.2-1-4.3-1.6-6.4-2.5c-3.1-1.4-8.1-5.2-9.9-1.5 c-1.1,2.2,0.1,6.8,2.7,7.5c-1.8-2.6-1.9-6.1,0.2-6.7c1.6-0.4,3.8,0.7,5.6,1.2c3,0.8,6.5,1.8,9.5,4 C106.6,59.2,107.9,60.8,108.6,61.1L108.6,61.1z" class="st7"/></g><g><g><path d="M93,67.9c0.1-0.1-0.1-0.3,0.1-0.3c1.1,1.5,2.8,1.6,4.1,2.3c1.3,0.7,2.5,1,3.8,1.5 c1.3,0.6,4.5,1.7,5.4,3.8c0.5,1.1,0.5,3,0.3,4c-0.4,1.4-1.4,1.1-2.4,0.9c-2.3-0.6-4.8-2.5-7.2-3.5c-1.4-0.6-4.2-1.5-5-4.1 c-1.1-3.3,0.3-4.5,1.7-4.7L93,67.9z" class="st7"/><path d="M93.8,68.3c-0.2,0.6-0.5,1.2-0.3,2.1c0.3,1.2,1.3,2,1.8,2.8c1.5,1.9,3.3,3,4.9,3.7c1.2,0.6,7,1.4,4.6-3.2 c2.2,0.6,2.3,5.6,0.9,6.6s-3.9-0.5-5.6-1.5c-1.3-0.7-2.4-1.3-3.7-1.7c-1.2-0.4-2.2-0.6-3.4-1.8c-2.1-2.2-1.7-5.9-0.1-6.7 c0.3-0.1,0.6-0.2,1-0.2c-0.1,0-0.1,0-0.1,0.1L93.8,68.3z" class="st7"/><path d="M96.6,69.9c-0.8-0.2-2.3,1.2-1.9,3.1c0.3,1.7,2.4,3,3.3,3.5c1.2,0.8,2.7,1.7,3.9,2.2 c1.2,0.4,2.6,0.8,3.5-0.2c0.7-0.8,0.9-2.7,0.1-4.2c1.1,0.6,1.4,3.3,1.2,4.6c-0.2,1.4-1.2,1.7-2.1,1.8 c-1.8,0.3-3.9-1.6-5.8-2.4c-1-0.5-2-0.9-3-1.2c-0.9-0.3-1.9-0.3-2.7-1.3c-1.9-2.2-2.2-6.1-0.4-6.9c0.6-0.3,1.3-0.2,2,0.1 c0.5,0.2,1.6,0.9,1.9,0.5V69.9z" class="st7"/><path d="M102.3,72.3c-0.4-0.4-1.2-0.4-1.7-0.7c-0.6-0.3-1.2-0.5-1.8-0.8c-1.2-0.6-2.4-1.4-3.7-1.5 c-0.4,0-1.4,0-1.4,0.9c0,1.4,1.6,1.5,2.1,1.6c2,0.4,4.3,1.4,6.3,2.7c0.9,0.6,2,1.9,2.9,1.8c0.7-0.1,0.4-1.3-0.2-2 c-0.4-0.5-1.1-1-1.6-1.3c-0.4-0.3-1.4-0.6-1.6-1.1L102.3,72.3z" class="st11"/></g><path d="M106.3,75.1c-1-2-3.1-2.5-4.3-3.2c-1.3-0.7-2.5-1.3-3.8-1.9c-1.7-0.8-3.7-2.6-5.4-2.4 c-0.9,0.1-1.6,1-1.7,2.5c-0.1,1.3,0.3,3.3,0.9,4.5c0.9,1.5,2.5,1.6,3.5,2.1c1.4,0.6,2.8,0.9,4.2,1.6c1.2,0.6,2.8,1.6,3.9,1.2 c-0.5-0.3-1-0.3-1.5-0.4c-0.8-0.2-1.5-0.5-2.3-0.8c-1.2-0.5-2.4-0.9-3.6-1.8c-1-0.8-2.3-2.5-2.3-4.3c0-3.5,4-1.9,5.5-1.4 c0.6,0.2,1.5,0.9,2,0.8L106.3,75.1z" class="st7"/><path d="M106.3,75.3c-1.1-1.7-1.9-2.9-3.3-3.6c-1.5-0.8-3-1.1-4.5-1.8c-2.2-1-5.7-4-6.9-0.7c-0.7,2,0.1,5.9,2,6.3 c-1.3-2.1-1.4-5.2,0.1-5.8c1.1-0.5,2.6,0.4,3.9,0.7c2.1,0.6,4.6,1.2,6.7,2.9C104.9,73.8,105.8,75,106.3,75.3L106.3,75.3z" class="st7"/></g><g><g><path d="M90.1,124.3c0.1-0.2-0.1-0.5,0.2-0.4c2,2.1,5,2.7,7.2,3.7c2.3,1.1,4.5,1.7,6.7,2.7c2.3,1,8,3,9.5,6 c0.8,1.6,0.9,4.1,0.4,5.4c-0.7,1.8-2.6,1.3-4.3,0.8c-4.1-1.2-8.6-4.1-12.7-5.8c-2.5-1.1-7.4-2.7-8.9-6.3 c-1.9-4.6,0.7-6,3.1-6.1L90.1,124.3z" class="st7"/><path d="M91.5,124.9c-0.3,0.8-0.9,1.5-0.6,2.7c0.5,1.7,2.2,2.9,3.2,4c2.6,2.8,5.9,4.6,8.7,5.8 c2.2,1,12.5,3,8.3-3.6c4,1.2,3.9,7.9,1.5,9c-2.6,1.2-6.9-1.2-10-2.9c-2.2-1.2-4.3-2.1-6.6-2.9c-2.1-0.8-4-1.1-6-3 c-3.7-3.3-2.9-8.2,0-9c0.5-0.1,1.2-0.2,1.7-0.1c-0.1,0-0.2,0-0.3,0.1L91.5,124.9z" class="st7"/><path d="M96.5,127.5c-1.4-0.3-4.1,1.2-3.5,3.8c0.5,2.4,4.3,4.4,5.7,5.2c2.2,1.3,4.7,2.7,6.9,3.6 c2.1,0.8,4.7,1.4,6.2,0.3c1.3-1,1.7-3.4,0.3-5.7c1.9,1,2.4,4.7,2,6.4c-0.4,1.9-2.3,2-3.8,2.1c-3.2,0.1-6.9-2.7-10.3-4.2 c-1.8-0.8-3.5-1.5-5.3-2c-1.6-0.5-3.3-0.7-4.8-2.2c-3.4-3.2-3.8-8.5-0.4-9.3c1.1-0.3,2.3-0.1,3.6,0.5c0.8,0.4,2.9,1.4,3.4,1 L96.5,127.5z" class="st7"/><path d="M106.6,131.7c-0.8-0.6-2.1-0.8-3-1.2c-1-0.4-2.1-0.9-3.1-1.3c-2.2-1-4.4-2.3-6.5-2.5 c-0.8-0.1-2.5-0.2-2.5,1c-0.1,1.9,2.9,2.3,3.8,2.5c3.5,0.8,7.6,2.6,11.2,4.7c1.5,0.9,3.6,2.9,5.1,2.8c1.3-0.1,0.8-1.7-0.2-2.7 c-0.8-0.8-1.9-1.5-2.8-2c-0.7-0.5-2.5-1-2.9-1.7L106.6,131.7z" class="st11"/></g><path d="M113.7,136c-1.7-2.8-5.5-3.8-7.6-5c-2.3-1.2-4.5-2.1-6.8-3.1c-3.1-1.4-6.6-4.1-9.6-4c-1.6,0-2.9,1.1-3,3.1 c-0.2,1.7,0.4,4.5,1.6,6.2c1.5,2.1,4.4,2.6,6.2,3.3c2.5,1,5,1.7,7.5,2.8c2.1,1,5,2.7,6.9,2.3c-0.8-0.5-1.8-0.6-2.6-0.8 c-1.3-0.4-2.7-0.9-4-1.5c-2.1-0.8-4.3-1.7-6.4-3.1c-1.8-1.2-4.1-3.7-4-6.2c0.2-4.7,7.2-1.9,10-1c1.1,0.4,2.6,1.5,3.5,1.4 L113.7,136z" class="st7"/><path d="M113.7,136.4c-1.9-2.5-3.4-4.3-5.9-5.4c-2.7-1.3-5.4-2-8.1-3.2c-3.9-1.7-10.2-6.3-12.4-2.1 c-1.3,2.5,0.1,7.9,3.4,8.8c-2.3-3.1-2.4-7.2,0.3-7.8c2-0.5,4.7,0.9,7,1.6c3.8,1.1,8.2,2.3,12,5 C111.2,134,112.7,135.9,113.7,136.4L113.7,136.4z" class="st7"/></g></g></g></g></g><circle cx="151" cy="-24" r="64" class="st0"/></svg>