<?xml version="1.0" standalone="no"?>
<!DOCTYPE svg PUBLIC "-//W3C//DTD SVG 20010904//EN"
 "http://www.w3.org/TR/2001/REC-SVG-20010904/DTD/svg10.dtd">
<svg version="1.0" xmlns="http://www.w3.org/2000/svg"
 width="589.000000pt" height="589.000000pt" viewBox="0 0 589.000000 589.000000"
 preserveAspectRatio="xMidYMid meet">
<metadata>
Created by potrace 1.14, written by Peter Selinger 2001-2017
</metadata>
<g transform="translate(0.000000,589.000000) scale(0.100000,-0.100000)"
fill="#000000" stroke="none">
<path d="M1715 4321 c-118 -23 -210 -39 -245 -45 -14 -2 -52 -9 -85 -15 -33
-6 -76 -13 -95 -16 -28 -5 -84 -15 -110 -20 -3 -1 -25 -5 -50 -9 -25 -4 -92
-16 -150 -26 -58 -11 -121 -22 -140 -25 -19 -3 -57 -10 -85 -15 -27 -5 -66
-12 -85 -14 -19 -3 -98 -17 -175 -31 -77 -14 -156 -28 -175 -31 -19 -2 -46 -7
-60 -10 -14 -3 -34 -7 -45 -9 -55 -10 -102 -17 -122 -20 -12 -2 -34 -6 -50 -9
l-29 -7 2 -97 c1 -53 5 -189 9 -302 3 -113 8 -277 10 -365 5 -184 12 -438 21
-705 3 -102 5 -199 5 -216 -1 -27 3 -33 26 -39 54 -13 77 -16 99 -11 25 7 24
-45 9 491 -6 223 -5 273 7 282 11 10 85 30 169 47 47 9 216 46 309 66 52 12
106 24 120 26 14 3 63 14 110 24 47 10 96 21 110 24 45 9 174 37 220 47 25 6
54 12 65 14 11 2 63 13 115 25 52 12 104 23 115 25 40 7 80 16 94 21 8 2 30 7
50 10 20 3 51 9 70 14 19 5 36 8 38 6 3 -3 16 -457 14 -496 -1 -8 0 -31 0 -50
1 -19 1 -48 0 -65 0 -16 2 -41 5 -54 5 -21 9 -23 42 -16 35 6 52 7 112 2 l25
-2 -1 200 c-1 110 -3 263 -4 340 -1 77 -1 145 -1 152 1 6 29 44 62 83 41 47
67 69 78 66 9 -3 45 -8 81 -11 36 -4 68 -9 72 -11 4 -3 31 -7 60 -9 29 -3 64
-7 78 -10 14 -3 50 -8 80 -11 58 -5 96 -22 530 -239 346 -173 371 -187 408
-236 18 -24 40 -52 48 -62 8 -9 14 -19 14 -22 0 -2 84 -127 187 -277 l187
-272 2 -414 c1 -227 4 -415 7 -418 3 -3 37 -10 75 -16 60 -9 77 -8 116 7 l46
18 -3 409 c-1 225 0 413 3 417 3 4 55 22 115 39 61 17 198 56 305 87 186 54
198 56 275 50 44 -3 88 -9 97 -11 10 -3 41 -7 70 -9 29 -2 73 -7 98 -10 25 -3
63 -8 85 -10 22 -3 65 -8 95 -10 30 -3 69 -7 85 -9 27 -4 149 -17 185 -21 36
-3 38 -13 38 -187 0 -211 -1 -198 17 -198 8 0 15 -7 15 -15 0 -8 3 -16 8 -16
21 -4 50 -2 80 6 l32 8 1 131 c0 72 0 157 -1 189 -1 46 2 57 14 57 9 0 17 6
17 13 1 6 3 21 4 32 1 11 5 54 9 95 3 41 8 91 10 110 7 49 15 173 21 318 3 68
8 144 11 170 2 26 6 70 8 97 3 28 12 95 21 150 9 55 18 111 20 125 2 14 7 36
9 50 3 14 8 36 11 50 3 14 8 42 11 62 5 35 4 37 -29 43 -29 6 -36 13 -46 45
-6 20 -11 44 -11 52 0 26 -245 77 -405 83 -38 1 -99 10 -133 19 -35 9 -114 19
-175 22 -62 3 -123 8 -137 11 -14 3 -32 8 -40 10 -14 3 -43 9 -100 18 -14 3
-63 5 -109 5 -46 1 -114 8 -150 16 -103 25 -110 26 -211 30 -124 5 -119 4
-165 17 -22 5 -80 11 -130 13 -130 3 -284 16 -355 30 -14 2 -63 11 -110 20
-47 8 -130 26 -185 41 -55 14 -119 29 -143 34 -24 5 -48 11 -53 14 -10 7 -31
12 -114 28 -110 22 -243 8 -385 -40 -54 -18 -58 -18 -185 1 -55 8 -128 17
-162 21 -34 3 -70 7 -80 9 -10 2 -45 7 -78 11 -33 3 -94 11 -135 16 -147 19
-231 19 -335 0z m-1420 -496 c45 -7 105 -15 150 -21 22 -3 50 -7 63 -10 12 -2
44 -7 70 -10 26 -3 50 -9 54 -12 4 -4 -9 -27 -28 -52 -20 -25 -45 -58 -57 -73
-12 -16 -27 -34 -32 -40 -6 -7 -31 -39 -55 -72 -25 -33 -48 -62 -51 -65 -4 -3
-30 -36 -60 -75 -29 -38 -56 -71 -61 -73 -4 -2 -8 -10 -8 -18 0 -8 -4 -14 -8
-14 -5 0 -24 -22 -43 -49 -35 -53 -50 -57 -48 -13 1 24 -10 442 -15 565 l-2
48 51 -6 c27 -3 64 -7 80 -10z m555 -80 c14 -2 45 -7 70 -10 25 -3 54 -7 65
-9 11 -2 47 -7 80 -11 32 -4 66 -8 75 -10 15 -3 84 -13 145 -21 34 -4 161 -22
215 -30 41 -6 72 -10 195 -27 l90 -13 3 -46 c4 -55 19 -47 -168 -82 -14 -3
-56 -12 -95 -20 -38 -9 -135 -30 -215 -47 -80 -17 -154 -32 -165 -35 -11 -2
-36 -7 -55 -11 -19 -4 -37 -8 -40 -8 -3 -1 -32 -7 -65 -14 -33 -6 -87 -18
-120 -26 -33 -8 -76 -17 -95 -20 -19 -3 -42 -8 -50 -10 -8 -2 -28 -7 -45 -10
-16 -2 -101 -20 -187 -38 -86 -18 -154 -28 -150 -23 6 11 147 190 167 212 6 7
35 44 65 83 30 39 58 71 62 71 5 0 8 6 8 14 0 8 3 16 8 18 4 2 31 33 60 70 58
73 48 70 142 53z m1144 -180 c-4 -8 -10 -12 -15 -9 -14 8 -10 24 6 24 9 0 12
-6 9 -15z m1659 -614 c13 -5 40 -6 60 -2 32 8 39 5 91 -43 l57 -51 0 -123 c0
-68 -1 -126 -4 -128 -4 -4 -127 172 -127 182 0 3 -5 10 -10 17 -41 48 -50 62
-50 73 0 7 -4 14 -8 16 -14 6 -54 68 -43 68 5 0 21 -4 34 -9z m621 -251 c9
-30 18 -37 60 -51 56 -19 53 -22 -39 -45 -5 -1 -45 -12 -88 -23 -43 -12 -84
-23 -90 -24 -12 -2 -14 46 -4 118 3 22 6 43 6 47 1 7 45 13 105 13 35 0 39 -3
50 -35z"/>
</g>
</svg>
