<svg xmlns="http://www.w3.org/2000/svg" width="1469.333" height="1469.333" preserveAspectRatio="xMidYMid meet" version="1.0" viewBox="0 0 1102 1102"><metadata>Created by potrace 1.11, written by Peter Selinger 2001-2013</metadata><g fill="#000" stroke="none"><path d="M4245 8924 c-33 -36 -32 -79 4 -156 17 -34 28 -65 25 -70 -3 -4 -23 -8 -45 -8 -50 0 -104 -22 -118 -49 -31 -57 -86 -50 -166 20 -56 49 -61 52 -90 52 -44 0 -57 -8 -109 -59 -54 -54 -58 -56 -98 -51 -24 3 -61 11 -84 18 -58 18 -84 7 -156 -63 -50 -49 -78 -89 -126 -179 -33 -64 -83 -150 -111 -190 -72 -107 -316 -585 -342 -671 -12 -40 -30 -91 -39 -113 -10 -22 -21 -50 -24 -62 -7 -23 -19 -27 -63 -23 -31 2 -29 -18 3 -26 18 -5 24 -12 22 -28 -2 -17 -9 -20 -33 -18 -44 4 -73 30 -132 113 -29 41 -84 108 -121 149 -38 41 -89 107 -115 146 -57 87 -146 173 -215 208 -137 69 -312 69 -312 -1 0 -26 66 -111 114 -148 22 -17 51 -59 82 -118 25 -51 63 -114 83 -142 20 -27 52 -75 70 -105 19 -30 56 -87 83 -127 27 -40 65 -107 85 -150 21 -43 74 -139 119 -213 183 -304 259 -428 296 -482 85 -126 110 -221 109 -417 -1 -180 27 -455 84 -821 14 -91 30 -196 35 -235 5 -38 15 -115 24 -170 41 -271 62 -826 47 -1268 -36 -1063 -25 -1242 100 -1709 l10 -38 809 0 810 0 0 25 c0 62 -157 826 -245 1190 -2 11 -30 128 -60 260 -99 426 -166 697 -205 820 -60 191 -118 419 -200 795 -44 204 -87 396 -125 565 -41 181 -86 535 -75 597 13 78 44 185 101 348 68 194 84 251 114 410 31 163 40 292 27 380 -15 100 35 513 71 590 21 44 154 37 139 -8 -2 -6 5 -15 15 -19 19 -7 43 -28 43 -37 0 -7 42 -57 87 -104 18 -18 46 -60 62 -92 41 -80 53 -101 74 -124 9 -11 17 -25 17 -32 0 -7 4 -14 9 -16 5 -1 39 -61 74 -133 63 -126 99 -179 263 -376 35 -42 60 -79 56 -83 -4 -4 -2 -6 5 -4 6 1 29 -15 50 -37 21 -22 58 -56 83 -76 25 -20 68 -58 95 -85 28 -27 53 -48 57 -46 8 2 75 -78 112 -135 16 -23 48 -108 72 -190 37 -126 41 -149 28 -156 -8 -4 -12 -13 -8 -19 4 -7 9 -6 15 3 4 7 10 11 14 8 3 -3 27 -93 54 -200 28 -107 74 -288 104 -404 97 -374 135 -545 187 -835 96 -539 154 -801 288 -1305 22 -82 68 -265 102 -405 66 -276 151 -547 210 -677 21 -45 35 -84 32 -87 -3 -3 0 -6 6 -6 7 0 11 -3 10 -8 -1 -4 12 -34 28 -68 22 -45 26 -61 15 -60 -23 2 -25 -25 -2 -31 12 -3 21 -9 21 -13 0 -4 25 -32 55 -64 l55 -56 829 2 829 3 -125 185 c-152 227 -263 410 -336 555 -57 114 -95 235 -142 453 -40 185 -91 354 -162 531 -52 133 -317 678 -544 1124 -156 305 -323 741 -429 1117 -39 140 -85 293 -101 339 -16 47 -59 184 -94 307 -35 122 -83 268 -106 325 -52 133 -57 177 -30 306 16 76 21 138 21 245 0 79 7 221 17 316 15 161 15 179 0 260 -11 60 -18 167 -22 342 -3 140 -6 296 -8 345 l-2 90 -38 3 c-49 4 -84 -21 -136 -99 -51 -76 -83 -181 -101 -329 -4 -36 -13 -93 -20 -127 l-12 -62 -39 19 c-21 11 -40 20 -42 20 -2 0 -3 -15 -3 -32 1 -21 -3 -32 -11 -30 -8 1 -13 -8 -13 -21 0 -13 6 -29 13 -36 10 -10 6 -10 -16 -2 -21 8 -28 8 -25 0 2 -6 7 -9 12 -7 7 3 45 -58 46 -74 0 -13 -28 -9 -42 6 -8 7 -23 16 -33 20 -11 4 -42 36 -69 71 -27 35 -87 101 -133 147 -46 46 -120 128 -165 183 -45 55 -134 160 -197 233 -64 73 -153 181 -198 240 -46 58 -100 123 -120 144 -47 48 -144 98 -190 98 -41 0 -73 -15 -73 -35 0 -7 -7 -21 -16 -29 -8 -9 -17 -26 -19 -38 -6 -31 12 -85 32 -92 8 -4 13 -13 9 -21 -3 -9 0 -15 8 -15 8 0 17 -15 20 -35 7 -33 26 -50 26 -22 0 6 5 4 11 -6 5 -9 7 -22 3 -28 -3 -6 3 -19 15 -30 23 -22 28 -49 8 -49 -7 0 -19 11 -27 24 -8 13 -61 80 -118 149 -142 172 -240 247 -322 247 -31 0 -47 -6 -65 -26z m569 -430 c5 -14 4 -15 -9 -4 -17 14 -19 20 -6 20 5 0 12 -7 15 -16z m-651 -177 c21 4 26 1 31 -24 4 -16 16 -35 26 -43 30 -22 24 -37 -24 -65 -38 -22 -47 -24 -70 -14 -41 19 -77 110 -60 153 5 14 10 14 39 2 17 -8 44 -12 58 -9z m1767 -417 c11 -11 16 -20 12 -20 -5 0 -17 9 -27 20 -10 11 -15 20 -12 20 4 0 16 -9 27 -20z" transform="translate(0.000000,1102.000000) scale(0.100000,-0.100000)"/><path d="M4460 7490 c0 -5 5 -10 11 -10 5 0 7 5 4 10 -3 6 -8 10 -11 10 -2 0 -4 -4 -4 -10z" transform="translate(0.000000,1102.000000) scale(0.100000,-0.100000)"/></g></svg>